<?xml version="1.0" encoding="UTF-8"?>
<svg id="Capa_1" xmlns="http://www.w3.org/2000/svg" version="1.1" viewBox="0 0 32.08 23.02">
  <!-- Generator: Adobe Illustrator 29.4.0, SVG Export Plug-In . SVG Version: 2.1.0 Build 152)  -->
  <defs>
    <style>
      .st0 {
        stroke-width: 1.5px;
      }

      .st0, .st1 {
        stroke: #1d1d1b;
        stroke-miterlimit: 10;
      }

      .st1 {
        fill: #1d1d1b;
      }
    </style>
  </defs>
  <path class="st1" d="M.5,22.52v-.97h7.75V1.52H.5V.5h16.47v1.02h-7.66v20.03h21.22v-6.78h1.06v7.75H.5Z"/>
  <path class="st0" d="M12.6,7.38v-.4h6.4v.4h-3l.03,4.19c.01.85.22,1.56.63,2.12.41.56.98.99,1.71,1.27.73.28,1.57.42,2.53.42s1.81-.14,2.53-.42c.73-.28,1.3-.7,1.71-1.26.41-.56.61-1.26.61-2.1l.05-4.23h-3.02v-.4h6.4v.4h-3.01v4.01c0,.96-.22,1.77-.66,2.42-.44.65-1.05,1.14-1.83,1.47-.78.33-1.71.5-2.78.5s-1.98-.17-2.77-.5c-.79-.33-1.41-.82-1.85-1.47-.44-.65-.66-1.46-.66-2.42v-4.01h-3.01Z"/>
</svg>