<?xml version="1.0" encoding="UTF-8"?>
<svg id="Capa_1" xmlns="http://www.w3.org/2000/svg" version="1.1" viewBox="0 0 32 32">
  <!-- Generator: Adobe Illustrator 29.5.1, SVG Export Plug-In . SVG Version: 2.1.0 Build 141)  -->
  <path d="M-.01,14.09v-3.03h9.95v3.03H-.01Z"/>
  <path d="M21.18,28.09v3.18h-6.87V.73h3.36v27.36h3.51Z"/>
  <path d="M26.83,18.6c-.6,0-1.15-.09-1.67-.26-.52-.18-.98-.41-1.39-.71-.42-.3-.79-.65-1.11-1.05-.32-.41-.57-.88-.75-1.41-.17-.49-.26-1.02-.26-1.58s.09-1.06.26-1.56c.17-.5.42-.96.73-1.37.33-.43.71-.79,1.15-1.09.43-.3.9-.53,1.39-.68.26-.08.52-.15.8-.19.27-.05.56-.07.85-.07.56,0,1.1.09,1.63.26.53.17,1.01.4,1.43.7.42.3.79.66,1.11,1.07.33.42.57.87.75,1.38.08.25.14.5.19.76.05.26.07.53.07.8,0,.45-.07.93-.22,1.45-.14.52-.4,1.02-.78,1.52-.31.42-.69.78-1.13,1.09-.44.31-.91.54-1.41.71-.26.08-.52.15-.8.19-.27.05-.55.07-.83.07h0ZM26.85,16.19c.26,0,.52-.04.78-.12.26-.08.5-.21.7-.37.26-.19.46-.41.61-.63.14-.23.24-.44.3-.63.04-.13.07-.26.09-.4.02-.14.04-.28.04-.42,0-.29-.04-.56-.13-.82-.09-.26-.2-.49-.35-.71-.13-.18-.3-.35-.51-.52-.2-.17-.45-.3-.74-.4-.26-.08-.52-.12-.79-.12-.57,0-1.06.16-1.5.48-.2.15-.39.33-.55.55-.16.22-.29.46-.36.71-.04.13-.07.26-.09.41-.02.14-.04.28-.04.42,0,.23.04.48.11.74.07.26.2.52.39.78.15.21.33.39.53.55.2.16.44.28.72.37.26.09.52.14.8.14h0Z"/>
</svg>