<?xml version="1.0" encoding="UTF-8"?>
<svg id="Capa_1" xmlns="http://www.w3.org/2000/svg" version="1.1" viewBox="0 0 42 42">
  <!-- Generator: Adobe Illustrator 29.5.1, SVG Export Plug-In . SVG Version: 2.1.0 Build 141)  -->
  <defs>
    <style>
      .st0 {
        fill: #f2f2f2;
      }
    </style>
  </defs>
  <path class="st0" d="M0,18.49v-3.97h13.05v3.97H0Z"/>
  <path class="st0" d="M27.8,36.86v4.17h-9.01V.98h4.41v35.88h4.6Z"/>
  <path class="st0" d="M35.21,24.41c-.78,0-1.51-.12-2.19-.34-.68-.23-1.28-.54-1.82-.93-.55-.39-1.04-.85-1.46-1.38-.42-.53-.74-1.15-.98-1.85-.23-.65-.34-1.34-.34-2.07s.11-1.39.34-2.04c.23-.66.55-1.26.96-1.8.43-.56.93-1.03,1.5-1.42.57-.39,1.18-.69,1.83-.9.34-.11.69-.19,1.05-.25.36-.06.73-.09,1.11-.09.73,0,1.44.11,2.14.34.7.23,1.32.53,1.87.91.55.39,1.03.86,1.46,1.4.43.55.75,1.14.98,1.8.1.32.18.66.25,1,.06.34.09.69.09,1.05,0,.59-.09,1.22-.28,1.9-.19.68-.53,1.34-1.03,2-.41.55-.9,1.02-1.48,1.43-.58.4-1.19.71-1.85.93-.34.11-.69.19-1.05.25-.36.06-.72.09-1.09.09h0ZM35.22,21.25c.34,0,.68-.05,1.03-.16.34-.11.65-.27.92-.49.34-.25.61-.53.8-.83.19-.3.32-.58.39-.83.05-.17.09-.34.12-.52.03-.18.05-.36.05-.55,0-.38-.06-.74-.17-1.08-.11-.34-.27-.65-.46-.93-.18-.23-.4-.46-.66-.68-.27-.22-.59-.4-.97-.52-.34-.11-.69-.16-1.04-.16-.74,0-1.39.21-1.96.63-.27.2-.51.44-.72.73-.21.29-.38.6-.48.93-.05.17-.09.34-.12.53-.03.19-.05.37-.05.56,0,.31.05.63.14.97.09.34.26.69.51,1.03.2.27.43.51.69.72.27.21.58.37.94.48.34.12.69.18,1.05.18h0Z"/>
</svg>